HIERARCHY
ROOT hip
{
	OFFSET 0.000000 0.000000 0.000000
	CHANNELS 6 Xposition Yposition Zposition Zrotation Yrotation Xrotation 
	JOINT lhipjoint
	{
		OFFSET 0.000000 0.000000 0.000000
		CHANNELS 3 Zrotation Yrotation Xrotation
		JOINT lfemur
		{
			OFFSET 1.363060 -1.794630 0.839290
			CHANNELS 3 Zrotation Yrotation Xrotation
			JOINT ltibia
			{
				OFFSET 2.448110 -6.726130 0.000000
				CHANNELS 3 Zrotation Yrotation Xrotation
				JOINT lfoot
				{
					OFFSET 2.562200 -7.039590 0.000000
					CHANNELS 3 Zrotation Yrotation Xrotation
					JOINT ltoes
					{
						OFFSET 0.157640 -0.433110 2.322550
						CHANNELS 3 Zrotation Yrotation Xrotation
						End Site
						{
							OFFSET 0.000000 0.000000 0.000000
						}
					}
				}
			}
		}
	}
	JOINT rhipjoint
	{
		OFFSET 0.000000 0.000000 0.000000
		CHANNELS 3 Zrotation Yrotation Xrotation
		JOINT rfemur
		{
			OFFSET -1.305520 -1.794630 0.839290
			CHANNELS 3 Zrotation Yrotation Xrotation
			JOINT rtibia
			{
				OFFSET -2.542530 -6.985550 0.000000
				CHANNELS 3 Zrotation Yrotation Xrotation
				JOINT rfoot
				{
					OFFSET -2.568260 -7.056230 0.000000
					CHANNELS 3 Zrotation Yrotation Xrotation
					JOINT rtoes
					{
						OFFSET -0.164730 -0.452590 2.363150
						CHANNELS 3 Zrotation Yrotation Xrotation
						End Site
						{
							OFFSET 0.000000 0.000000 0.000000
						}
					}
				}
			}
		}
	}
	JOINT lowerback
	{
		OFFSET 0.000000 0.000000 0.000000
		CHANNELS 3 Zrotation Yrotation Xrotation
		JOINT upperback
		{
			OFFSET 0.028270 2.035590 -0.193380
			CHANNELS 3 Zrotation Yrotation Xrotation
			JOINT thorax
			{
				OFFSET 0.056720 2.048850 -0.042750
				CHANNELS 3 Zrotation Yrotation Xrotation
				JOINT lowerneck
				{
					OFFSET 0.000000 0.000000 0.000000
					CHANNELS 3 Zrotation Yrotation Xrotation
					JOINT upperneck
					{
						OFFSET -0.054170 1.746240 0.172020
						CHANNELS 3 Zrotation Yrotation Xrotation
						JOINT head
						{
							OFFSET 0.104070 1.761360 -0.123970
							CHANNELS 3 Zrotation Yrotation Xrotation
							End Site
							{
								OFFSET 0.000000 0.000000 0.000000
							}
						}
					}
				}
				JOINT lclavicle
				{
					OFFSET 0.000000 0.000000 0.000000
					CHANNELS 3 Zrotation Yrotation Xrotation
					JOINT lhumerus
					{
						OFFSET 3.362410 1.200890 -0.311210
						CHANNELS 3 Zrotation Yrotation Xrotation
						JOINT lradius
						{
							OFFSET 4.983000 -0.000000 -0.000000
							CHANNELS 3 Zrotation Yrotation Xrotation
							JOINT lwrist
							{
								OFFSET 3.483560 -0.000000 -0.000000
								CHANNELS 3 Zrotation Yrotation Xrotation
								JOINT lhand
								{
									OFFSET 0.000000 0.000000 0.000000
									CHANNELS 3 Zrotation Yrotation Xrotation
									JOINT lfingers
									{
										OFFSET 0.715260 -0.000000 -0.000000
										CHANNELS 3 Zrotation Yrotation Xrotation
										End Site
										{
											OFFSET 0.000000 0.000000 0.000000
										}
									}
								}
								JOINT lthumb
								{
									OFFSET 0.000000 0.000000 0.000000
									CHANNELS 3 Zrotation Yrotation Xrotation
									End Site
									{
										OFFSET 0.000000 0.000000 0.000000
									}
								}
							}
						}
					}
				}
				JOINT rclavicle
				{
					OFFSET 0.000000 0.000000 0.000000
					CHANNELS 3 Zrotation Yrotation Xrotation
					JOINT rhumerus
					{
						OFFSET -3.136600 1.374050 -0.404650
						CHANNELS 3 Zrotation Yrotation Xrotation
						JOINT rradius
						{
							OFFSET -5.241900 -0.000000 -0.000000
							CHANNELS 3 Zrotation Yrotation Xrotation
							JOINT rwrist
							{
								OFFSET -3.444170 -0.000000 -0.000000
								CHANNELS 3 Zrotation Yrotation Xrotation
								JOINT rhand
								{
									OFFSET 0.000000 0.000000 0.000000
									CHANNELS 3 Zrotation Yrotation Xrotation
									JOINT rfingers
									{
										OFFSET -0.622530 -0.000000 -0.000000
										CHANNELS 3 Zrotation Yrotation Xrotation
										End Site
										{
											OFFSET 0.000000 0.000000 0.000000
										}
									}
								}
								JOINT rthumb
								{
									OFFSET 0.000000 0.000000 0.000000
									CHANNELS 3 Zrotation Yrotation Xrotation
									End Site
									{
										OFFSET 0.000000 0.000000 0.000000
									}
								}
							}
						}
					}
				}
			}
		}
	}
}
MOTION
Frames: 11
Frame Time: 0.008333
-0.329574 15.624719 2.553901 -174.713646 -3.883045 163.179019 5.566925 1.049252 -1.493765 7.385707 -3.840617 7.462846 4.507387 11.172975 39.556374 4.807853 -12.932579 15.154302 6.493100 -14.889700 -46.929900 -9.416119 -1.498071 -5.357178 6.839958 -0.307660 9.014205 -7.559198 -12.947475 47.819974 -2.376509 6.277193 6.774967 -2.743000 10.267000 -29.845700 3.707546 -1.020424 17.436942 0.823125 -1.007319 -2.560069 3.360617 -0.098615 -4.553181 -7.852159 -6.130511 -1.722167 4.739345 -8.230350 5.864190 4.134200 -3.798300 -1.113400 -6.836321 -4.450499 4.047421 70.937521 -31.227972 -59.406350 29.732229 -50.755212 -9.794863 -0.490300 -0.468372 -53.862653 50.421289 9.187603 10.842000 -7.125000 0.000000 0.000000 21.961000 42.836200 -1.237400 7.784559 5.179148 3.821651 -77.051237 26.750621 -63.865445 -31.213280 54.424337 -11.485757 -0.200071 -0.802840 -74.836832 -40.612346 4.350705 -3.682200 7.125000 0.000000 0.000000 -9.756400 -24.225700 -4.963100 
-0.344998 15.412765 2.600969 -174.866722 -3.739566 162.327153 5.516720 1.021802 -1.545230 7.750194 -3.261503 7.126348 5.093175 11.798636 41.826287 5.064637 -14.278289 12.510823 6.349600 -14.758800 -46.369200 -9.292712 -1.419498 -5.392375 6.088614 -0.510819 9.382156 -7.871555 -13.191022 49.036045 -2.402806 6.366243 4.429973 -2.706500 10.204100 -29.640200 3.541347 -0.975065 18.844092 0.819480 -0.918970 -2.542517 3.339552 -0.075809 -4.980417 -7.664744 -6.085474 -1.618554 4.786908 -8.194592 5.607881 4.031400 -3.769500 -1.241300 -6.948259 -4.482185 4.025297 72.453506 -31.529506 -60.566455 29.577202 -50.968889 -9.712296 -0.433600 -0.390302 -54.671750 52.028482 11.261979 13.930200 -7.125000 0.000000 0.000000 24.286700 46.085200 0.691100 7.962542 5.232215 3.868271 -78.400291 26.941194 -64.695477 -30.616996 54.165586 -11.106092 -0.241429 -0.833523 -74.810162 -40.748403 4.821515 -4.058600 7.125000 0.000000 0.000000 -9.761300 -23.656700 -5.095700 
-0.359825 15.216931 2.642862 -175.012155 -3.596372 161.618537 5.473229 1.003266 -1.592188 8.109077 -2.700399 6.729465 5.666482 12.358322 43.894427 5.341522 -15.569088 9.912382 6.372300 -14.779700 -46.458200 -9.183357 -1.357828 -5.404295 5.406846 -0.665517 9.559912 -8.162810 -13.414770 50.146283 -2.434591 6.379569 2.412098 -2.746800 10.273400 -29.866600 3.378036 -0.929846 20.079229 0.813017 -0.843925 -2.531586 3.363229 -0.054771 -5.378883 -7.606132 -6.036606 -1.563827 4.878684 -8.147680 5.393007 4.026800 -3.737900 -1.298200 -7.029352 -4.564546 3.986029 73.334127 -31.498432 -60.918279 29.552648 -51.099221 -9.668767 -0.383841 -0.351983 -55.766502 53.597581 12.808519 16.617600 -7.125000 0.000000 0.000000 26.662400 48.685200 2.593800 8.077965 5.316771 3.895858 -79.370939 26.948952 -65.282335 -30.008034 53.817371 -10.715183 -0.293220 -0.845368 -75.078161 -41.193259 5.542464 -4.678700 7.125000 0.000000 0.000000 -9.963600 -22.763600 -5.412100 
-0.375448 15.044283 2.681173 -175.037529 -3.441460 161.163547 5.438586 0.999335 -1.631006 8.570903 -2.205643 6.173763 6.194365 12.839504 45.691068 5.616789 -16.739321 7.535321 6.518100 -14.912300 -47.027400 -9.117923 -1.332640 -5.378544 4.968297 -0.780140 9.384766 -8.435538 -13.635029 51.170964 -2.451408 6.270874 0.672972 -2.830400 10.415300 -30.332300 3.348055 -0.902282 20.983387 0.810034 -0.781206 -2.525254 3.406204 -0.036877 -5.683362 -7.636401 -5.964192 -1.565793 5.026441 -8.062404 5.210739 4.122500 -3.685300 -1.317600 -7.077832 -4.664432 3.928222 73.729893 -31.167869 -60.520335 29.463749 -50.985452 -9.537142 -0.339083 -0.350115 -56.951823 54.646937 13.554842 18.208300 -7.125000 0.000000 0.000000 28.278500 50.094800 3.821200 8.133707 5.402752 3.914718 -79.892198 26.873288 -65.750830 -29.333522 53.351346 -10.301070 -0.345492 -0.831449 -75.252417 -41.610347 6.429864 -5.448300 7.125000 0.000000 0.000000 -10.131700 -21.658300 -5.765900 
-0.390772 14.893327 2.715006 -175.110053 -3.291162 160.763885 5.410517 0.994992 -1.666232 8.934778 -1.758312 5.795853 6.614177 13.199941 47.068728 5.862811 -17.765656 5.713400 6.583500 -14.970900 -47.280800 -9.050861 -1.309903 -5.349354 4.536022 -0.839163 9.173869 -8.669343 -13.819910 52.045739 -2.436138 6.034117 -0.646426 -2.917900 10.560900 -30.812800 3.267870 -0.872175 21.784009 0.800379 -0.735291 -2.519203 3.448013 -0.022267 -5.952356 -7.728037 -5.859551 -1.574514 5.237962 -7.928958 5.072010 4.314600 -3.609200 -1.301500 -7.103896 -4.787892 3.864420 73.705341 -30.662961 -59.359036 29.295112 -50.640070 -9.304922 -0.296910 -0.382557 -58.042946 54.896901 13.348207 18.200500 -7.125000 0.000000 0.000000 28.500800 49.976900 3.768000 8.110361 5.504026 3.936767 -79.776474 26.766013 -66.059151 -28.781772 52.934221 -9.994771 -0.383517 -0.788856 -75.241994 -41.855194 7.291808 -6.190500 7.125000 0.000000 0.000000 -10.195300 -20.584400 -6.055000 
-0.405201 14.770234 2.743366 -175.121298 -3.113131 160.446940 5.390030 0.993650 -1.696774 9.313382 -1.400682 5.570339 6.906336 13.443393 48.021914 6.065395 -18.693047 4.540364 6.485400 -14.882800 -46.899900 -9.015974 -1.302543 -5.317727 4.359408 -0.771848 8.984579 -8.862502 -13.963767 52.737700 -2.350827 5.512407 -1.809552 -3.101000 10.856700 -31.798200 3.254913 -0.839494 22.412393 0.789853 -0.680979 -2.511657 3.487092 -0.000428 -6.160911 -7.866922 -5.754343 -1.590945 5.471863 -7.787312 4.968914 4.567600 -3.527500 -1.265100 -7.092105 -4.931349 3.802311 73.253506 -30.010266 -57.413660 29.098490 -50.098219 -9.003268 -0.258944 -0.452584 -58.782079 54.210020 12.255012 16.559900 -7.125000 0.000000 0.000000 27.190000 48.368500 2.426800 8.018079 5.627514 3.940452 -79.070830 26.501213 -65.734407 -28.608215 52.732677 -9.906259 -0.399328 -0.730292 -75.482556 -41.946360 8.096593 -6.874500 7.125000 0.000000 0.000000 -10.169200 -19.580000 -6.272000 
-0.420028 14.694608 2.765059 -175.115248 -2.912903 160.216738 5.385495 0.992373 -1.727399 9.592318 -1.062471 5.538722 7.061425 13.568437 48.513290 6.216630 -19.467519 3.839258 6.319100 -14.730600 -46.249200 -9.010587 -1.305242 -5.294804 4.420565 -0.608842 8.900355 -8.999872 -14.051466 53.181213 -2.190254 4.699389 -3.010375 -3.360200 11.256500 -33.150000 3.299228 -0.803161 22.844494 0.775663 -0.622497 -2.500102 3.471386 0.026728 -6.278241 -7.942782 -5.671463 -1.654961 5.852056 -7.677659 4.818358 4.426300 -3.464200 -1.120200 -7.056656 -5.072469 3.739691 72.472841 -29.264853 -54.713361 28.954497 -49.432445 -8.677042 -0.223769 -0.547352 -59.014763 52.881491 10.393988 13.716800 -7.125000 0.000000 0.000000 24.956200 45.534900 0.351700 7.886892 5.755338 3.928032 -78.106487 26.088571 -64.826737 -28.554362 52.558014 -9.866285 -0.409372 -0.671014 -75.952857 -41.881991 8.697511 -7.348800 7.125000 0.000000 0.000000 -10.069800 -18.860400 -6.372800 
-0.433959 14.643460 2.785956 -175.098403 -2.714138 160.109992 5.396685 0.993549 -1.753206 9.743676 -0.822519 5.607531 7.099848 13.592168 48.588746 6.297347 -19.855406 3.388246 6.208700 -14.627600 -45.813700 -9.027074 -1.316053 -5.274369 4.636029 -0.350563 8.854244 -9.072652 -14.084965 53.368830 -1.979678 3.747164 -4.052084 -3.638400 11.663000 -34.549900 3.367175 -0.790707 23.039035 0.762106 -0.595625 -2.490631 3.504416 0.042082 -6.331058 -8.176767 -5.610629 -1.680153 6.036785 -7.585161 4.797050 4.668400 -3.406000 -1.057500 -6.979193 -5.218667 3.668842 71.134471 -28.370886 -51.047309 29.118880 -48.839943 -8.482987 -0.197527 -0.680743 -58.625547 51.336876 8.197484 10.582700 -7.125000 0.000000 0.000000 22.660700 42.263100 -1.622000 7.724542 5.880365 3.903486 -77.056658 25.636966 -63.474274 -28.468409 52.316431 -9.790568 -0.420837 -0.612235 -76.596754 -41.571859 9.184346 -7.654500 7.125000 0.000000 0.000000 -9.821700 -18.333800 -6.327300 
-0.450876 14.616592 2.812227 -175.042842 -2.363847 160.113410 5.427996 0.993314 -1.783251 9.804037 -0.599928 5.855901 7.026744 13.511055 48.245715 6.296301 -19.696334 3.087288 6.220900 -14.639100 -45.862000 -9.070815 -1.342996 -5.243831 5.055498 0.076558 8.776466 -9.074708 -14.066796 53.286551 -1.744901 2.783218 -4.762199 -3.880100 11.999100 -35.728700 3.593360 -0.760419 23.066681 0.740762 -0.522152 -2.478297 3.408222 0.080939 -6.307308 -8.356488 -5.575412 -1.734688 6.162704 -7.513917 4.812534 4.879900 -3.360500 -0.979700 -6.881111 -5.348800 3.591411 69.487531 -27.448102 -46.855083 29.541724 -48.366866 -8.430151 -0.184442 -0.816907 -57.362617 49.992234 5.939023 7.656600 -7.125000 0.000000 0.000000 20.770300 39.020000 -3.225000 7.531397 6.001066 3.882141 -75.713772 25.192760 -61.860890 -28.232773 51.937846 -9.640901 -0.431343 -0.534808 -77.102014 -40.879377 9.563895 -7.761800 7.125000 0.000000 0.000000 -9.344500 -18.010600 -6.078900 
-0.469583 14.643460 2.835213 -174.981074 -1.934442 160.213297 5.477445 0.990345 -1.815056 9.722296 -0.238935 6.286796 6.841962 13.319464 47.455543 6.216418 -18.997209 2.811596 6.433600 -14.835800 -46.698200 -9.140980 -1.374986 -5.223132 5.668069 0.588699 8.824969 -8.982130 -13.969931 52.834716 -1.497047 1.856023 -5.074506 -4.061200 12.241400 -36.591400 3.854568 -0.720672 22.918322 0.718965 -0.433081 -2.465423 3.325973 0.131455 -6.248564 -8.590652 -5.539464 -1.690918 6.287718 -7.446877 4.830976 5.132400 -3.313800 -0.956400 -6.777179 -5.458325 3.529919 67.641478 -26.546030 -42.356271 29.979906 -47.873368 -8.404217 -0.178514 -0.951991 -55.401521 49.184899 4.003748 5.410500 -7.125000 0.000000 0.000000 19.599500 36.386800 -4.360200 7.313515 6.097790 3.873386 -74.153824 24.835590 -60.007830 -27.893941 51.453919 -9.441812 -0.444080 -0.447517 -77.454920 -39.988954 9.811000 -7.700000 7.125000 0.000000 0.000000 -8.760900 -17.891700 -5.713100 
-0.483316 14.712221 2.849741 -174.848159 -1.655642 160.385011 5.528746 0.984870 -1.839229 9.601598 0.073219 6.793025 6.545470 13.018289 46.246538 6.052335 -17.925612 2.763771 6.773700 -15.138400 -48.013300 -9.229952 -1.400917 -5.242057 6.430841 0.995030 9.143602 -8.781999 -13.779241 51.961800 -1.264114 1.064886 -4.912844 -4.106500 12.300700 -36.804300 4.109511 -0.733097 22.514215 0.707346 -0.427389 -2.445997 3.287183 0.140277 -6.049280 -8.791796 -5.490952 -1.649123 6.374069 -7.372133 4.893390 5.347400 -3.264800 -0.962800 -6.662018 -5.515929 3.488299 65.835844 -25.724742 -37.859512 30.197593 -47.198098 -8.276458 -0.175274 -1.078265 -53.127278 48.961432 2.600186 3.953000 -7.125000 0.000000 0.000000 19.120400 34.601400 -5.122100 7.100026 6.139079 3.848835 -72.403619 24.505652 -57.741380 -27.508919 50.854755 -9.200348 -0.464653 -0.357784 -77.844568 -39.214473 10.018369 -7.627800 7.125000 0.000000 0.000000 -8.265900 -17.816400 -5.397000 
